<?xml version="1.0" encoding="UTF-8"?>
<svg width="380px" height="56px" viewBox="0 0 380 56" version="1.1" xmlns="http://www.w3.org/2000/svg" xmlns:xlink="http://www.w3.org/1999/xlink">
    <!-- Generator: Sketch 53 (72520) - https://sketchapp.com -->
    <title>mdpi/Logo / login_logo 360x60 for Black receipt SWITCH</title>
    <desc>Created with Sketch.</desc>
    <g id="Logo-/-login_logo-360x60-for-Black-receipt-SWITCH" stroke="none" stroke-width="1" fill="none" fill-rule="evenodd">
        <g id="Group" transform="translate(0.000000, 1.000000)" fill="#002846">
            <polyline id="Fill-1" points="35.0234736 10 30.4576439 31.3110204 23.5441121 10 18.4558879 10 11.5449169 31.3110204 6.978575 10 0 10 8.21849354 42 13.6959528 42 21.0012804 20.8924528 28.3035351 42 33.7835551 42 42 10 35.0234736 10"></polyline>
            <path d="M48,6.43146781 L54,6.43146781 L54,0 L48,0 L48,6.43146781 Z M48,42 L54,42 L54,11.5780562 L48,11.5780562 L48,42 Z" id="Fill-3"></path>
            <path d="M94.855032,43 C85.4476131,43 79,36.2376179 79,26.7692209 C79,15.6138126 86.366708,10 94.394193,10 C103.672453,10 109,16.8972581 109,26.433624 L109,28.5964181 L85.7761934,28.5964181 C86.366708,33.8018859 89.3290969,37.4557494 95.8423228,37.4557494 C99.5925811,37.4557494 102.619033,36.1027419 105.052387,34.6817655 L107.290969,39.4836675 C104.525418,41.3756477 99.7899359,43 94.855032,43 M85.8423228,24.06533 L102.619033,24.06533 C102.421161,20.2781836 100.446063,15.6138126 94.394193,15.6138126 C89.1317421,15.6138126 86.4323207,19.0627072 85.8423228,24.06533" id="Fill-4"></path>
            <path d="M127.550386,43 C118.416881,43 113,35.7644901 113,26.7039069 C113,16.8967271 119.36026,10 128.368113,10 C131.330826,10 134.732825,10.7444727 136.747707,12.1627941 L134.921797,17.9799826 C133.471854,16.8967271 131.330826,15.8166575 128.496733,15.8166575 C123.014058,15.8166575 119.612553,19.8719628 119.612553,26.2982171 C119.612553,32.0447816 122.322972,37.3203424 129.000824,37.3203424 C131.835412,37.3203424 133.598001,36.2376179 135.237411,34.8840794 L137,40.4989541 C134.795651,41.9847134 130.952386,43 127.550386,43" id="Fill-5"></path>
            <path d="M169,10.4062208 L169,42.3909343 L162.263019,42.3909343 L162.263019,39.8219194 C159.636469,41.8498375 155.998446,43 152.360423,43 C143.602083,43 137,36.5764007 137,26.569031 C137,15.4109677 145.421888,10 153.36978,10 C157.007803,10 160.038519,11.1506935 162.263019,12.7718598 L162.263019,10.4062208 L169,10.4062208 Z M144.073434,26.569031 C144.073434,32.7892543 147.711456,37.3187494 153.639048,37.3187494 C159.499454,37.3187494 162.799967,32.7892543 162.799967,26.569031 C162.799967,20.0073697 159.03022,15.7470955 153.439081,15.7470955 C147.77917,15.7470955 144.073434,20.0753387 144.073434,26.569031 L144.073434,26.569031 Z" id="Fill-6"></path>
            <path d="M228,0 L228,42.4167337 L221.26313,42.4167337 L221.26313,39.9565397 C218.633979,41.8985572 214.996545,43 211.361227,43 C202.601974,43 196,36.8459555 196,27.2624882 C196,16.5770695 204.419633,11.3978477 212.36951,11.3978477 C216.007472,11.3978477 219.038138,12.499799 221.26313,14.0522942 L221.26313,0 L228,0 Z M203.073846,27.2624882 C203.073846,33.2217715 206.711279,37.5588931 212.639302,37.5588931 C218.499083,37.5588931 221.802714,33.2217715 221.802714,27.2624882 C221.802714,20.981315 218.027211,16.9009934 212.437222,16.9009934 C206.778992,16.9009934 203.073846,21.0464049 203.073846,27.2624882 L203.073846,27.2624882 Z" id="Fill-7"></path>
            <path d="M190.050984,9.0026245 L190.050984,9.0026245 C190.050984,9.0026245 190.047956,9.0026245 190.047451,9.0026245 C190.039879,9.0026245 190.032307,9.00370158 190.02524,9.00370158 C189.778395,9.01608798 185.387683,9.28212636 183.427562,12.2300901 L183.427562,9.56162822 L177,9.56162822 L177,42 L183.427562,42 L183.427562,24.3068322 C183.427562,19.1643212 186.449268,15.5981144 190.178193,15.5981144 C191.078748,15.5981144 191.979303,15.8700767 192.748107,16.2136647 L195,10.3166602 C194.047451,9.6574882 191.754669,8.95146327 190.050984,9.0026245" id="Fill-9"></path>
            <path d="M74.0504796,9.00267839 L74.0504796,9.00267839 C74.0504796,9.00267839 74.0479556,9.00267839 74.0474508,9.00267839 C74.0398788,9.00267839 74.0328117,9.00375545 74.0252398,9.00375545 C73.77789,9.01614163 69.3881878,9.28271376 67.4280666,12.230086 L67.4280666,9.56167207 L61,9.56167207 L61,42 L67.4280666,42 L67.4280666,24.3066114 C67.4280666,19.1641926 70.449268,15.5985884 74.177688,15.5985884 C75.0787481,15.5985884 75.9793034,15.8700073 76.7486118,16.2130506 L79,10.3166905 C78.0474508,9.65699181 75.7546694,8.95097955 74.0504796,9.00267839" id="Fill-10"></path>
            <path d="M278.177546,24.8430584 C278.428198,24.8430584 278.553525,24.7153588 278.553525,24.4578135 C278.553525,23.5134809 278.511749,22.6861167 278.428198,21.9778672 C278.344648,21.2696177 278.198433,20.6160966 277.989556,20.0140845 C277.403655,18.082495 276.422977,16.6338028 275.044386,15.668008 C273.665796,14.7022133 271.97389,14.2193159 269.968668,14.2193159 C268.004178,14.2193159 266.334204,14.7022133 264.955614,15.668008 C263.577023,16.6338028 262.5953,18.082495 262.010444,20.0140845 C261.800522,20.6160966 261.655352,21.2696177 261.571802,21.9778672 C261.488251,22.6861167 261.446475,23.5134809 261.446475,24.4578135 C261.446475,24.7153588 261.571802,24.8430584 261.822454,24.8430584 L278.177546,24.8430584 Z M270.344648,43 C267.420366,43 264.986945,42.3142857 263.044386,40.9396378 C261.101828,39.5671362 259.712794,37.5496982 258.877285,34.8873239 C258.584856,33.9429913 258.365535,32.880617 258.219321,31.7012743 C258.073107,30.5208585 258,28.9423206 258,26.9678068 C258,25.0362173 258.073107,23.4587525 258.219321,22.2354125 C258.365535,21.0120724 258.584856,19.9282361 258.877285,18.9849765 C259.712794,16.4084507 261.091384,14.4350101 263.013055,13.0614353 C264.933681,11.6878605 267.253264,11 269.968668,11 C272.684073,11 275.013055,11.6878605 276.955614,13.0614353 C278.898172,14.4350101 280.287206,16.4084507 281.122715,18.9849765 C281.456919,19.9722334 281.686684,21.0442656 281.81201,22.2042924 C281.937337,23.362173 282,25.0147552 282,27.1609658 C282,27.591281 281.770235,27.804829 281.310705,27.804829 L261.822454,27.804829 C261.571802,27.804829 261.446475,27.9550637 261.446475,28.2555332 C261.446475,29.5443327 261.498695,30.5852448 261.603133,31.3782696 C261.706527,32.1734406 261.863185,32.9353454 262.073107,33.665057 C262.78329,35.7254192 263.859008,37.2384977 265.300261,38.2032193 C266.741514,39.1690141 268.48564,39.6529846 270.532637,39.6529846 C272.496084,39.6529846 274.156658,39.2773977 275.51436,38.5251509 C276.872063,37.7750503 277.989556,36.8425218 278.866841,35.7254192 C279.117493,35.3809524 279.409922,35.3380282 279.744125,35.5966465 L281.185379,36.9476861 C281.477807,37.2063045 281.498695,37.506774 281.248042,37.8490946 C280.160836,39.3525151 278.699739,40.5855131 276.861619,41.5513078 C275.022454,42.5181757 272.851175,43 270.344648,43 L270.344648,43 Z" id="Fill-1"></path>
            <path d="M303.968338,40.022039 C305.994723,40.022039 307.641161,39.5707646 308.907652,38.6671664 C310.174142,37.7656672 311.101847,36.4538231 311.693931,34.7316342 C312.031662,33.7671664 312.253298,32.6862069 312.358839,31.4887556 C312.463325,30.2923538 312.51715,29.0235382 312.51715,27.6802099 C312.51715,26.3368816 312.463325,25.0565217 312.358839,23.8391304 C312.253298,22.6217391 312.031662,21.5302849 311.693931,20.5637181 C311.101847,18.8436282 310.174142,17.5317841 308.907652,16.6281859 C307.641161,15.7266867 305.994723,15.2743628 303.968338,15.2743628 C302.068602,15.2743628 300.453826,15.7151424 299.124011,16.5977511 C297.794195,17.4793103 296.833773,18.8005997 296.242744,20.5637181 C295.94723,21.4043478 295.736148,22.3908546 295.609499,23.5232384 C295.48285,24.6566717 295.419525,26.0430285 295.419525,27.6802099 C295.419525,29.3163418 295.48285,30.6922039 295.609499,31.8046477 C295.736148,32.9170915 295.94723,33.8931034 296.242744,34.7316342 C296.833773,36.4958021 297.794195,37.8170915 299.124011,38.6997001 C300.453826,39.5812594 302.068602,40.022039 303.968338,40.022039 L303.968338,40.022039 Z M292.633245,54 C292.211082,54 292,53.7901049 292,53.3713643 L292,13.2604198 C292,12.8406297 292.211082,12.6296852 292.633245,12.6296852 L294.78628,12.6296852 C295.208443,12.6296852 295.419525,12.8406297 295.419525,13.2604198 L295.419525,16.9115442 L295.48285,16.9115442 C296.200528,15.4853073 297.277045,14.3098951 298.712401,13.3863568 C300.146702,12.4628186 302.131926,12 304.664908,12 C309.899736,12 313.318206,14.3938531 314.923483,19.1794603 C315.30343,20.3968516 315.577836,21.6877061 315.746702,23.052024 C315.914512,24.4163418 316,25.9590705 316,27.6802099 C316,29.3593703 315.914512,30.8811094 315.746702,32.2454273 C315.577836,33.6097451 315.30343,34.8995502 314.923483,36.1169415 C313.318206,40.9035982 309.899736,43.2953523 304.664908,43.2953523 C302.131926,43.2953523 300.146702,42.8335832 298.712401,41.910045 C297.277045,40.9875562 296.200528,39.8121439 295.48285,38.3838081 L295.419525,38.3838081 L295.419525,53.3713643 C295.419525,53.7901049 295.208443,54 294.78628,54 L292.633245,54 Z" id="Fill-4"></path>
            <path d="M336.467866,39.6529846 C338.480506,39.6529846 340.195373,39.1593561 341.609254,38.1710262 C343.023136,37.1837693 344.02892,35.7683434 344.62982,33.9226023 C344.928663,33.0630449 345.143959,32.1101274 345.272494,31.0574111 C345.401028,30.0057679 345.465296,28.6429242 345.465296,26.9688799 C345.465296,25.3377599 345.401028,23.9963783 345.272494,22.9447351 C345.143959,21.8930919 344.928663,20.9380282 344.62982,20.0795439 C344.02892,18.2338028 343.023136,16.8173038 341.609254,15.8289738 C340.195373,14.8427901 338.480506,14.3480885 336.467866,14.3480885 C334.497001,14.3480885 332.804627,14.8427901 331.390746,15.8289738 C329.976864,16.8173038 328.970009,18.2338028 328.37018,20.0795439 C328.070266,20.9380282 327.856041,21.8930919 327.727506,22.9447351 C327.598972,23.9963783 327.534704,25.3377599 327.534704,26.9688799 C327.534704,28.6429242 327.598972,30.0057679 327.727506,31.0574111 C327.856041,32.1101274 328.070266,33.0630449 328.37018,33.9226023 C328.970009,35.7683434 329.976864,37.1837693 331.390746,38.1710262 C332.804627,39.1593561 334.497001,39.6529846 336.467866,39.6529846 M336.467866,43 C333.640103,43 331.239717,42.3142857 329.269923,40.9396378 C327.297986,39.5671362 325.885176,37.5926224 325.028278,35.0171697 C324.684447,33.9869886 324.427378,32.860228 324.257069,31.6358149 C324.084619,30.413548 324,28.8564722 324,26.9688799 C324,25.1231388 324.084619,23.5875252 324.257069,22.3652582 C324.427378,21.1419182 324.684447,20.0151576 325.028278,18.9849765 C325.885176,16.4084507 327.297986,14.4350101 329.269923,13.0614353 C331.239717,11.6878605 333.640103,11 336.467866,11 C339.29563,11 341.705656,11.6878605 343.697943,13.0614353 C345.690231,14.4350101 347.113753,16.4084507 347.971722,18.9849765 C348.314482,20.0151576 348.57048,21.1419182 348.742931,22.3652582 C348.913239,23.5875252 349,25.1231388 349,26.9688799 C349,28.8564722 348.913239,30.413548 348.742931,31.6358149 C348.57048,32.860228 348.314482,33.9869886 347.971722,35.0171697 C347.113753,37.5926224 345.690231,39.5671362 343.697943,40.9396378 C341.705656,42.3142857 339.29563,43 336.467866,43" id="Fill-7"></path>
            <path d="M367.209396,43 C365.833826,43 364.546309,42.8723005 363.343624,42.6147552 C362.14094,42.3561368 361.034899,42.0127431 360.025503,41.583501 C359.016107,41.155332 358.114094,40.6938967 357.319463,40.2002683 C356.523758,39.7077129 355.826846,39.2022803 355.225503,38.6861167 C354.924832,38.3867203 354.924832,38.0862508 355.225503,37.7857814 L356.642953,36.1761234 C356.900671,35.917505 357.200268,35.917505 357.544966,36.1761234 C358.747651,37.1633803 360.186577,38.0111335 361.861745,38.7183099 C363.536913,39.4265594 365.426846,39.7806841 367.531544,39.7806841 C370.237584,39.7806841 372.244564,39.2441315 373.555705,38.1710262 C374.865772,37.098994 375.520805,35.6599598 375.520805,33.8571429 C375.520805,33.084507 375.424161,32.3987928 375.230872,31.7978538 C375.037584,31.1958417 374.672483,30.6700201 374.13557,30.2193159 C373.597584,29.7686117 372.879195,29.404829 371.977181,29.1247485 C371.075168,28.8468142 369.915436,28.6214621 368.497987,28.4486922 L365.405369,28.1278337 C362.527517,27.8273642 360.315436,27 358.769128,25.6478873 C357.222819,24.2957746 356.449664,22.3963783 356.449664,19.9507713 C356.449664,17.1167002 357.405369,14.9179074 359.316779,13.3511737 C361.227114,11.78444 363.880537,11 367.273826,11 C369.378523,11 371.300671,11.2897384 373.040268,11.8692153 C374.779866,12.4486922 376.271409,13.1472837 377.518121,13.9617706 C377.861745,14.2193159 377.904698,14.5208585 377.64698,14.8631791 L376.487248,16.4084507 C376.271409,16.7529175 375.971812,16.8173038 375.585235,16.6016097 C374.596242,16.0017438 373.339866,15.4544601 371.816107,14.9608317 C370.291275,14.4672032 368.712752,14.2193159 367.080537,14.2193159 C364.718121,14.2193159 362.93557,14.7022133 361.732886,15.668008 C360.530201,16.6338028 359.928859,17.9762575 359.928859,19.6921529 C359.928859,21.1955734 360.45396,22.3652582 361.507383,23.2012072 C362.559732,24.0393025 364.395973,24.5855131 367.016107,24.8430584 L370.108725,25.166063 C373.115436,25.4654594 375.348993,26.3142857 376.809396,27.7082495 C378.268725,29.1043595 379,31.0026828 379,33.4075117 C379,36.3682093 378.001342,38.7086519 376.004027,40.4256204 C374.006711,42.1425889 371.075168,43 367.209396,43" id="Fill-10"></path>
        </g>
    </g>
</svg>